<?xml version="1.0" encoding="UTF-8"?>
<svg id="Capa_2" data-name="Capa 2" xmlns="http://www.w3.org/2000/svg" viewBox="0 0 1058.47 667.18">
  <defs>
    
  </defs>
  <g id="Capa_2-2" data-name="Capa 2">
    <g>
      <rect class="cls-5" x="3.23" width="699.18" height="297"></rect>
      <rect class="cls-3" x="705.65" width="352.82" height="297"></rect>
      <rect class="cls-33" x="0" y="279.9" width="352.82" height="297"></rect>
      <rect class="cls-4" x="352.82" y="279.9" width="352.82" height="297"></rect>
      <rect class="cls-8" x="705.65" y="279.9" width="352.82" height="297"></rect>
      <text class="cls-2" transform="translate(73.26 220.63)"><tspan class="cls-24" x="0" y="0">#</tspan><tspan class="cls-25" x="27.79" y="0">1</tspan><tspan class="cls-17" x="42.58" y="0">7</tspan><tspan class="cls-20" x="66.05" y="0">3</tspan><tspan class="cls-15" x="92.4" y="0">4</tspan><tspan class="cls-14" x="117.26" y="0">2</tspan><tspan class="cls-30" x="141.74" y="0">5</tspan></text>
      <text class="cls-2" transform="translate(733.33 220.63)"><tspan class="cls-11" x="0" y="0">#</tspan><tspan class="cls-10" x="26.26" y="0">7</tspan><tspan class="cls-12" x="48.91" y="0">6</tspan><tspan class="cls-16" x="74.4" y="0">9</tspan><tspan class="cls-21" x="99.65" y="0">5</tspan><tspan class="cls-13" x="125.28" y="0">8</tspan><tspan class="cls-31" x="150.43" y="0">7</tspan></text>
      <text class="cls-1" transform="translate(82.75 439.71)"><tspan class="cls-32" x="0" y="0">#</tspan><tspan class="cls-27" x="29.18" y="0">e</tspan><tspan x="55.1" y="0">9</tspan><tspan class="cls-26" x="84.19" y="0">f</tspan><tspan x="98.16" y="0">d</tspan><tspan class="cls-29" x="125.86" y="0">9</tspan><tspan class="cls-6" x="154.27" y="0">9</tspan></text>
      <text class="cls-1" transform="translate(413.37 439.71)"><tspan x="0" y="0">#f9f</tspan><tspan class="cls-35" x="89.76" y="0">8</tspan><tspan class="cls-28" x="118.89" y="0">e</tspan><tspan x="144.81" y="0">3</tspan></text>
      <text class="cls-2" transform="translate(790.79 440.62)"><tspan class="cls-18" x="0" y="0">#</tspan><tspan class="cls-19" x="26.54" y="0">2</tspan><tspan class="cls-22" x="51.7" y="0">8</tspan><tspan class="cls-19" x="77.23" y="0">2</tspan><tspan class="cls-22" x="102.38" y="0">8</tspan><tspan class="cls-23" x="127.92" y="0">2</tspan><tspan class="cls-30" x="152.79" y="0">6</tspan></text>
      <rect class="cls-9" y="576.9" width="352.82" height="90.28"></rect>
      <rect class="cls-34" x="352.82" y="576.9" width="352.82" height="90.28"></rect>
      <rect class="cls-7" x="705.65" y="576.9" width="352.82" height="90.28"></rect>
    </g>
  </g>
</svg>