<?xml version="1.0" encoding="UTF-8"?>
<svg id="Capa_2" data-name="Capa 2" xmlns="http://www.w3.org/2000/svg" viewBox="0 0 325.27 325.27">
  <defs>
    
  </defs>
  <g id="Capa_2-2" data-name="Capa 2">
    <g>
      <rect class="cls-1" x="0" width="325.27" height="325.27"></rect>
      <path class="cls-2" d="M168.96,228.71c-15.74,0-28.53-5.62-37.39-14.34-12.34,6.19-25.27,10.97-37.67,14.34l4.21-23.9c6.86-2.25,14.11-5.06,21.5-8.72-4.12-10.12-5.13-21.93-3.05-33.74,6.94-39.36,36.06-65.79,67.55-65.79,20.24,0,33.31,10.4,29.24,33.46-4.51,25.58-28.52,51.73-59.26,71.41,4.52,3.09,10.12,4.78,16.87,4.78,14.06,0,25.15-8.72,33.42-20.52h26.99c-12.48,26.15-35.7,43.02-62.41,43.02ZM141.98,184c23-14.06,42.25-32.33,45.52-50.89,1.39-7.87-.05-14.06-10.17-14.06-16.59,0-31.77,19.12-36.23,44.42-1.24,7.03-.84,14.34.88,20.52Z"></path>
    </g>
  </g>
</svg>