<?xml version="1.0" encoding="UTF-8"?>
<svg id="Capa_2" data-name="Capa 2" xmlns="http://www.w3.org/2000/svg" viewBox="0 0 335 158.11">
  <defs>
    
  </defs>
  <g id="Capa_4" data-name="Capa 4">
    <g>
      <g>
        <path class="cls-2" d="M247.22,154.66c4.03,0,5.4-2.35,5.4-4.11,0-5.95-14.87-3.91-14.87-13.07,0-4.23,3.05-7.51,8.69-7.51,6.34,0,8.88,4.3,9.2,8.41h-3.91c-.35-2.39-1.72-4.97-5.25-4.97-2.54,0-4.93,1.33-4.93,3.72,0,5.95,14.91,4.46,14.91,13.46,0,3.6-2.31,7.51-9.04,7.51s-10.06-3.21-10.49-8.57h4.07c.27,3.64,2.94,5.13,6.22,5.13Z"></path>
        <path class="cls-2" d="M262.09,143.66l12.21-13.35h4.74l-11.12,12.17,11.82,15.22h-4.7l-9.63-12.45-3.33,3.64v8.81h-3.72v-27.4h3.72v13.35Z"></path>
        <path class="cls-2" d="M284.64,157.71h-3.72v-27.4h3.72v27.4Z"></path>
        <path class="cls-2" d="M306.01,151.53v-21.21h3.68v27.4h-3.64l-14.87-21.17v21.17h-3.72v-27.4h3.64l14.91,21.21Z"></path>
      </g>
      <path class="cls-1" d="M207.99,41.7h-16.26c-7.32,41.52-14.28,71.44-47.76,71.44l2.64-14.96c15.15,0,21.36-17.21,28.25-56.3l2.61-14.78h32.2M196.87,27.11h37.38l-2.14,12.16c-14.05,8.6-18.39,19.45-19.91,28.05-2.41,13.65,1.14,27.49,18.53,27.49l-2.9,16.46c-29.74,0-36.33-20.95-32.8-40.96,1.88-10.66,6.6-21.51,15.89-28.62h-15.72"></path>
      <path class="cls-1" d="M49.94,113.14c-10.47,0-18.98-3.74-24.88-9.54-8.21,4.11-16.81,7.29-25.06,9.54l2.8-15.9c4.57-1.5,9.38-3.37,14.3-5.8-2.74-6.73-3.41-14.59-2.03-22.44,4.62-26.18,23.99-43.76,44.94-43.76,13.47,0,22.16,6.92,19.45,22.26-3,17.02-18.97,34.41-39.42,47.5,3,2.06,6.73,3.18,11.22,3.18,9.35,0,16.73-5.8,22.23-13.65h17.95c-8.3,17.39-23.75,28.62-41.52,28.62ZM31.99,83.4c15.3-9.35,28.11-21.51,30.28-33.85.92-5.24-.03-9.35-6.77-9.35-11.04,0-21.13,12.72-24.1,29.55-.82,4.68-.56,9.54.59,13.65Z"></path>
      <path class="cls-1" d="M138.93,29.91l-4.37,25.81c-5.3,31.27,3.43,42.03,12.24,42.4l-2.64,14.96c-14.06-.38-21.94-9.14-23.41-22.89-6.13,13.75-17.49,24.11-31.47,20.41l2.81-16.58c8.73,3.7,21.24-7.04,26.54-38.31l4.37-25.81h15.94ZM134.81,0c6.52,0,10.19,5.09,9.13,11.3s-6.48,11.49-13,11.49-10-5.09-8.92-11.49c1.05-6.22,6.44-11.3,12.78-11.3Z"></path>
      <path class="cls-1" d="M327.53,27.05l-14.84,84.16h-16.46l1.91-10.85c-7.59,8.04-17.39,12.72-28.99,12.72-22.44,0-37.71-17.39-33.02-43.95,4.72-26.75,26.08-43.95,48.52-43.95,11.6,0,19.78,4.49,24.5,12.72l1.91-10.85h16.46ZM273.85,98.12c16.27,0,28.17-12.34,31.11-28.99,2.97-16.83-4.61-28.99-20.89-28.99s-28.14,12.16-31.11,28.99c-2.94,16.65,4.8,28.99,20.89,28.99Z"></path>
      <path class="cls-1" d="M319.91,105.6c.72-4.08,4.38-7.48,8.8-7.48s6.88,3.4,6.16,7.48c-.72,4.08-4.38,7.48-8.8,7.48s-6.88-3.4-6.16-7.48Z"></path>
    </g>
  </g>
</svg>