<?xml version="1.0"?>
<svg id="Capa_2" data-name="Capa 2" xmlns="http://www.w3.org/2000/svg" viewBox="0 0 550.91 97.31">
  <defs>
    
  </defs>
  <g id="Capa_2-2" data-name="Capa 2">
    <g>
      <g>
        <path class="cls-1" d="M340.75,85.72c13.56,0,18.17-7.9,18.17-13.83,0-20.02-50.04-13.17-50.04-43.98,0-14.22,10.27-25.28,29.23-25.28,21.33,0,29.89,14.49,30.95,28.31h-13.17c-1.18-8.03-5.79-16.72-17.65-16.72-8.56,0-16.59,4.48-16.59,12.51,0,20.02,50.17,15.01,50.17,45.3,0,12.12-7.77,25.28-30.42,25.28s-33.84-10.8-35.29-28.84h13.7c.92,12.25,9.88,17.25,20.94,17.25Z"></path>
        <path class="cls-1" d="M390.79,48.72L431.87,3.81h15.93l-37.4,40.95,39.77,51.22h-15.8l-32.39-41.88-11.19,12.25v29.63h-12.51V3.81h12.51v44.9Z"></path>
        <path class="cls-1" d="M466.63,95.99h-12.51V3.81h12.51v92.18Z"></path>
        <path class="cls-1" d="M538.53,75.19V3.81h12.38v92.18h-12.25l-50.04-71.24v71.24h-12.51V3.81h12.25l50.17,71.37Z"></path>
      </g>
      <g>
        <path class="cls-2" d="M.31,46.77C3.04,22.28,23.87.09,58.18.77c22.79.43,36.96,15.62,29.62,32.52-7.94,17.75-30.38,24.84-34.65,33.12-2.3,3.84,0,7,7,6.57v2.82c-2.65.68-5.04,1.02-7.34,1.02-12.8,0-19.8-10.24-13.4-18.61,5.8-9.64,39.52-25.09,38.15-41.31-.85-7.6-9.22-12.72-19.29-12.72-24.84,0-39.6,20.06-41.14,43.27-1.45,20.74,9.3,39.35,30.64,42.08,1.88.26,3.67.43,5.55.43,11.1,0,22.36-5.12,29.79-16.98,1.62-2.56,3.93-3.67,5.97-3.67,3.76,0,6.57,3.84,2.56,9.64-8.53,11.78-26.97,18.35-46.26,17.33C14.05,94.57-2.51,72.12.31,46.77Z"></path>
        <path class="cls-2" d="M123.38,72.03c0,9.56.85,16.3,5.55,22.96h-28.85c4.69-6.66,5.46-13.4,5.46-22.96V27.65c0-9.47-1.54-16.3-7.6-22.79l13.91-3.58c2.05-.6,3.84-.94,5.29-.94,4.61,0,6.32,2.9,6.32,7.25l-.09,64.44Z"></path>
        <path class="cls-2" d="M198.06,21.51c9.22-2.99,16.47-3.84,21.85-3.33,13.48,1.02,19.37,11.18,13.06,22.28-4.44,7.94-18.52,22.96-21.59,33.63-2.65,10.84,5.97,17.33,18.35,17.33,1.2,0,2.48,0,3.76-.17,14.42-.94,30.55-9.22,30.47-19.29l-.17-42.25c-.09-18.26-15.11-25.35-31.24-25.35-29.02,0-67.85,22.53-68.45,62.56l-.09,7.17c.26,8.53,1.02,14.68,5.38,20.91h-28.85c4.61-6.57,5.38-11.61,5.38-20.91l.09-44.98c0-9.39-1.11-17.5-7.68-24.5l14.77-3.67c2.05-.6,3.76-.94,5.12-.94,4.61,0,5.89,3.07,5.89,6.49v39.17C177.4,15.79,206.51.09,238.51.09c25.09,0,45.06,10.41,45.06,30.9l.09,46.26c0,4.44.17,14.59,5.8,17.84h-13.91c-8.02,0-11.95-3.93-11.95-11.95v-2.13c-8.62,11.01-24.92,15.45-38.41,15.45-16.9,0-32.6-7.94-31.41-21.68-.43-14.51,14.85-28.59,22.45-39.86,5.04-6.83,3.93-12.8-6.23-12.8-3.07,0-6.91.51-11.78,1.79l-.17-2.39Z"></path>
      </g>
    </g>
  </g>
</svg>