<?xml version="1.0" encoding="UTF-8"?>
<svg id="Capa_2" data-name="Capa 2" xmlns="http://www.w3.org/2000/svg" viewBox="0 0 1075.2 497.93">
  <defs>
    
  </defs>
  <g id="Capa_2-2" data-name="Capa 2">
    <g>
      <rect class="cls-1" width="1075.2" height="497.93"></rect>
      <g>
        <path class="cls-2" d="M568.53,219.41h-11.37c-5.12,29.04-9.99,49.97-33.4,49.97l1.85-10.47c10.6,0,14.94-12.03,19.76-39.37l1.82-10.33h22.52M560.76,209.21h26.14l-1.5,8.5c-9.83,6.02-12.86,13.6-13.93,19.62-1.68,9.55.8,19.23,12.96,19.23l-2.03,11.51c-20.8,0-25.41-14.65-22.94-28.65,1.31-7.46,4.61-15.04,11.12-20.01h-11"></path>
        <path class="cls-2" d="M457.99,269.38c-7.32,0-13.27-2.62-17.4-6.67-5.74,2.88-11.76,5.1-17.53,6.67l1.96-11.12c3.19-1.05,6.56-2.36,10-4.06-1.92-4.71-2.39-10.2-1.42-15.7,3.23-18.31,16.78-30.61,31.43-30.61,9.42,0,15.5,4.84,13.61,15.57-2.1,11.9-13.27,24.07-27.57,33.23,2.1,1.44,4.71,2.22,7.85,2.22,6.54,0,11.7-4.06,15.55-9.55h12.56c-5.81,12.17-16.61,20.01-29.04,20.01ZM445.43,248.58c10.7-6.54,19.66-15.04,21.18-23.68.65-3.66-.02-6.54-4.73-6.54-7.72,0-14.78,8.89-16.86,20.67-.58,3.27-.39,6.67.41,9.55Z"></path>
        <path class="cls-2" d="M520.23,211.17l-3.06,18.05c-3.71,21.87,2.4,29.39,8.56,29.66l-1.85,10.47c-9.84-.26-15.35-6.4-16.38-16.01-4.29,9.62-12.23,16.86-22.01,14.28l1.97-11.59c6.11,2.59,14.85-4.92,18.56-26.79l3.06-18.05h11.15ZM517.35,190.25c4.56,0,7.12,3.56,6.39,7.9-.76,4.48-4.53,8.04-9.09,8.04s-7-3.56-6.24-8.04c.74-4.35,4.51-7.9,8.94-7.9Z"></path>
        <path class="cls-2" d="M652.14,209.17l-10.38,58.87h-11.51l1.34-7.59c-5.31,5.62-12.16,8.89-20.27,8.89-15.7,0-26.37-12.17-23.1-30.74,3.3-18.71,18.24-30.74,33.94-30.74,8.11,0,13.84,3.14,17.14,8.89l1.34-7.59h11.51ZM614.59,258.88c11.38,0,19.71-8.63,21.76-20.28,2.08-11.77-3.23-20.28-14.61-20.28s-19.68,8.5-21.76,20.28c-2.05,11.64,3.36,20.28,14.61,20.28Z"></path>
      </g>
    </g>
  </g>
</svg>