<?xml version="1.0"?>
<svg id="Capa_2" data-name="Capa 2" xmlns="http://www.w3.org/2000/svg" viewBox="0 0 325.27 325.27">
  <defs>
    
  </defs>
  <g id="Capa_2-2" data-name="Capa 2">
    <rect class="cls-1" width="325.27" height="325.27"></rect>
    <g>
      <g>
        <path class="cls-2" d="M149.48,190.85c8.77,0,11.75-5.11,11.75-8.94,0-12.94-32.35-8.51-32.35-28.44,0-9.2,6.64-16.35,18.9-16.35,13.79,0,19.33,9.37,20.01,18.31h-8.51c-.77-5.19-3.75-10.81-11.41-10.81-5.53,0-10.73,2.89-10.73,8.09,0,12.94,32.44,9.71,32.44,29.29,0,7.83-5.02,16.35-19.67,16.35s-21.88-6.98-22.82-18.65h8.85c.6,7.92,6.39,11.15,13.54,11.15Z"></path>
        <path class="cls-2" d="M181.83,166.93l26.56-29.03h10.3l-24.18,26.48,25.71,33.12h-10.22l-20.94-27.07-7.24,7.92v19.16h-8.09v-59.6h8.09v29.03Z"></path>
        <path class="cls-2" d="M265.07,184.04v-46.15h8v59.6h-7.92l-32.35-46.06v46.06h-8.09v-59.6h7.92l32.44,46.15Z"></path>
      </g>
      <path class="cls-3" d="M60.99,166.67c1.77-15.84,15.23-30.19,37.41-29.74,14.73.28,23.89,10.1,19.15,21.02-5.13,11.48-19.65,16.06-22.4,21.41-1.49,2.48,0,4.53,4.53,4.25v1.82c-1.71.44-3.26.66-4.75.66-8.28,0-12.8-6.62-8.66-12.03,3.75-6.24,25.55-16.22,24.67-26.71-.55-4.91-5.96-8.22-12.47-8.22-16.06,0-25.6,12.97-26.6,27.98-.94,13.41,6.01,25.44,19.81,27.21,1.21.17,2.37.28,3.59.28,7.17,0,14.46-3.31,19.26-10.98,1.05-1.66,2.54-2.37,3.86-2.37,2.43,0,4.25,2.48,1.66,6.24-5.52,7.62-17.44,11.86-29.91,11.2-20.25-1.1-30.96-15.62-29.14-32.01Z"></path>
    </g>
  </g>
</svg>